<svg xmlns="http://www.w3.org/2000/svg" width="360" height="283" viewBox="0 0 360 283"><defs><clipPath id="a"><path d="M360,0 L360,283 L0,283 L0,0 L360,0 Z"/></clipPath><clipPath id="b"><path d="M121,0 C187.826455,0 242,54.1735453 242,121 C242,187.826455 187.826455,242 121,242 C54.1735453,242 0,187.826455 0,121 C0,54.1735453 54.1735453,0 121,0 Z M121,22 C66.3238098,22 22,66.3238098 22,121 C22,175.67619 66.3238098,220 121,220 C175.67619,220 220,175.67619 220,121 C220,66.3238098 175.67619,22 121,22 Z"/></clipPath><clipPath id="c"><path d="M126,0 L126,32 C74.0852335,32 32,74.0852335 32,126 C32,177.914766 74.0852335,220 126,220 C177.914766,220 220,177.914766 220,126 C220,82.1005425 189.906948,45.2296939 149.224284,34.8908945 L157.130696,3.87509827 C211.662639,17.7335845 252,67.1561445 252,126 C252,195.587878 195.587878,252 126,252 C56.4121215,252 0,195.587878 0,126 C0,56.4121215 56.4121215,0 126,0 Z"/></clipPath><clipPath id="d"><path d="M113,0 L113,6 C53.9055318,6 6,53.9055318 6,113 C6,172.094468 53.9055318,220 113,220 C172.094468,220 220,172.094468 220,113 C220,63.0295449 185.745422,21.0596751 139.43672,9.29084326 L140.918699,3.4752613 C189.824381,15.9038689 226,60.2273002 226,113 C226,175.408177 175.408177,226 113,226 C50.5918233,226 0,175.408177 0,113 C0,50.5918233 50.5918233,0 113,0 Z"/></clipPath><clipPath id="e"><path d="M32.5950781,3.25071458 L38.4049219,4.74928542 L27.8972167,45.4880739 C25.9827944,44.9381269 24.0422133,44.4500071 22.0777736,44.0260147 L32.5950781,3.25071458 Z M6,0 L6.00084671,42.0490857 C5.00457561,42.0164468 4.00420848,42 3,42 C1.99612144,42 0.996081708,42.016436 0.00013522396,42.0490857 L0,0 L6,0 Z"/></clipPath><clipPath id="f"><path d="M21.204,0 C28.956,0 33.516,2.204 37.544,6.232 C41.42,10.032 43.928,16.112 43.928,25.916 L43.928,26.068 C43.928,43.472 35.264,55.328 19.304,55.328 C11.4,55.328 5.624,52.82 0.76,49.02 L7.676,38.836 C11.324,41.724 14.82,43.092 19.076,43.092 C25.156,43.092 28.424,38.836 29.108,31.996 C26.372,34.58 22.572,36.328 17.86,36.328 C7.524,36.328 0,29.944 0,19.532 L0,19.38 C0,7.6 9.044,0 21.204,0 Z M21.736,11.476 C17.1,11.476 14.288,14.516 14.288,18.62 L14.288,18.772 C14.288,22.8 17.252,25.764 21.888,25.764 C26.524,25.764 29.336,22.724 29.336,18.848 L29.336,18.696 C29.336,14.592 26.372,11.476 21.736,11.476 Z"/></clipPath><clipPath id="g"><path d="M24.7,0 C32.148,0 37.316,2.052 42.408,5.852 L35.492,16.264 C32.224,13.832 29.184,12.236 24.928,12.236 C18.696,12.236 15.58,16.872 14.896,23.56 C17.708,21.432 21.128,19.456 26.372,19.456 C35.72,19.456 43.928,25.384 43.928,36.024 L43.928,36.176 C43.928,48.108 34.428,55.328 22.8,55.328 C15.276,55.328 10.336,53.048 6.536,49.248 C2.584,45.296 0,39.292 0,29.336 L0,29.184 C0,12.616 8.056,0 24.7,0 Z M22.04,30.02 C17.404,30.02 14.668,32.984 14.668,36.784 L14.668,36.936 C14.668,40.812 17.556,43.852 22.192,43.852 C26.828,43.852 29.564,40.888 29.564,37.012 L29.564,36.86 C29.564,33.06 26.676,30.02 22.04,30.02 Z"/></clipPath><clipPath id="h"><path d="M33.748,17.836 C39.416,17.836 43.108,22.204 43.108,27.56 L43.108,27.664 C43.108,32.968 39.312,37.44 33.696,37.44 C28.08,37.44 24.336,33.02 24.336,27.716 L24.336,27.612 C24.336,22.256 28.028,17.836 33.748,17.836 Z M39.104,0.52 L23.452,20.54 L11.024,36.92 L4.004,36.92 L19.344,17.316 L32.084,0.52 L39.104,0.52 Z M33.696,23.556 C31.824,23.556 30.68,25.22 30.68,27.56 L30.68,27.664 C30.68,29.952 32.032,31.72 33.748,31.72 C35.516,31.72 36.764,30.004 36.764,27.716 L36.764,27.612 C36.764,25.272 35.464,23.556 33.696,23.556 Z M9.412,0 C15.08,0 18.772,4.42 18.772,9.724 L18.772,9.828 C18.772,15.184 14.976,19.604 9.36,19.604 C3.744,19.604 0,15.236 0,9.88 L0,9.776 C0,4.42 3.692,0 9.412,0 Z M9.36,5.72 C7.54,5.72 6.344,7.436 6.344,9.724 L6.344,9.828 C6.344,12.168 7.696,13.884 9.412,13.884 C11.18,13.884 12.428,12.168 12.428,9.88 L12.428,9.776 C12.428,7.488 11.128,5.72 9.36,5.72 Z"/></clipPath></defs><g clip-path="url(#a)"><g clip-path="url(#b)" transform="translate(55 21)"><polygon fill="#BFB8CE" points="0 0 242 0 242 242 0 242 0 0"/></g><g transform="translate(54 18)"><g clip-path="url(#c)"><polygon fill="#402482" points="0 0 252 0 252 252 0 252 0 0"/></g><g clip-path="url(#d)" transform="translate(13 13)"><polygon points="0 0 226 0 226 226 0 226 0 0"/></g></g><g clip-path="url(#e)" transform="translate(177 12)"><polygon points="0 0 38.405 0 38.405 45.488 0 45.488 0 0"/></g><g transform="translate(113.268 115.736)"><g clip-path="url(#f)"><polygon fill="#3B286B" points="0 0 43.928 0 43.928 55.328 0 55.328 0 0"/></g><g clip-path="url(#g)" transform="translate(50.16)"><polygon fill="#3B286B" points="0 0 43.928 0 43.928 55.328 0 55.328 0 0"/></g></g><g clip-path="url(#h)" transform="translate(212.82 116.08)"><polygon points="0 0 43.108 0 43.108 37.44 0 37.44 0 0"/></g></g></svg>